#!OML:ASF F:\VICON\USERDATA\INSTALL\rory3\rory3.ASF
:FULLY-SPECIFIED
:DEGREES
132
root -0.6675616219269531 17.423515644222615 40.40404513082563 1.8316472397618373 3.4135171640711675 1.6926813138761905
lfemur -31.343859235547935 4.726185628077454 -25.9140704003374
ltibia 39.55702900631882
lfoot -3.0646034884460835 -9.136609487170539
ltoes 19.574615226720052
rfemur -32.41491111449821 -11.58584438478128 15.87864860860041
rtibia 119.38796505205323
rfoot 27.913526289081712 -15.61746616649311
rtoes 14.093159104258948
lowerback 1.0 -0.37630103360507183 -1.0803424630146625
upperback 0.24050025886827614 -0.37127457332933633 -0.009001744374131926
thorax -9.600942092005253 -0.5630271033058162 2.382631842597666
lowerneck -20.634646324772227 -6.087432692630923 -1.6442273936351275
upperneck 13.057402752964935 -8.76629468525871 4.168037762434524
head 7.7960341636058565 -3.1962634784988238 0.7057553800990197
lclavicle -4.020058292672804e-14 -1.2642547127133389e-14
lhumerus -50.34039577395881 -2.39411006046857 90.11795648499152
lradius 99.16882513909515
lwrist 34.762356136758896
lhand -29.571311724370315 -1.8319851116511128
lfingers nan
lthumb -2.087826380794063 30.15245210308511
rclavicle -3.274560352814936e-14 -8.192125411114935e-15
rhumerus -45.09601517193481 9.204195237314686 -98.16266570930287
rradius 99.83803202541075
rwrist -10.417394646831596
rhand -19.13372782195419 1.0
rfingers nan
rthumb 7.369782882699067 11.78456992524901
133
root -0.5643041456984512 17.40949838375115 39.69018784307211 1.7066340400289555 4.290622038592447 6.016972117901063
lfemur -27.69659387472178 3.7250612325565706 -30.70711876568504
ltibia 40.49224660814214
lfoot -6.872006806770999 -4.999845026809006
ltoes 12.303834933699282
rfemur -29.374179102586105 -11.863107167658486 10.069869503800863
rtibia 121.68479900972326
rfoot 25.637462851074268 -11.7193349474625
rtoes 13.392621018880845
lowerback 1.0 -0.39523091220542916 -4.105325442089682
upperback 0.9270428260321044 -0.930548218836277 -1.4977649968769415
thorax -8.158400097599879 -0.6808360469101292 2.7628203724304328
lowerneck -20.60499175153722 -5.9780069839162095 -1.585790902701624
upperneck 12.63082432018328 -8.687155700330285 4.4945455693998975
head 7.689772499951658 -3.1272605079346203 0.7848604275158885
lclavicle 1.889195891062118e-15 1.1133687344673199e-14
lhumerus -48.5275232843261 -3.338224310041191 90.56411672730448
lradius 98.88230933410213
lwrist 35.47138252206682
lhand -30.076208428602044 -0.5798839715912267
lfingers nan
lthumb -2.514028457842735 31.546859166817143
rclavicle 9.769353366760016e-15 1.569624989247834e-14
rhumerus -45.87565909538023 7.800456030560056 -98.0961987202884
rradius 97.0735117195851
rwrist -11.224009111693995
rhand -19.550137205142768 1.0
rfingers nan
rthumb 7.026296486793803 11.635949338530908
134
root -0.6353316318308849 17.319908086259275 40.14847049937995 2.3975770515771453 4.110649147576347 4.0408854185141205
lfemur -27.227485952509298 3.2742915431194324 -28.866243091301175
ltibia 41.82975361108521
lfoot -8.39315690797109 -2.46745029219227
ltoes 9.563043280422331
rfemur -32.784017506966904 -11.92113414601798 12.538856121772994
rtibia 125.64871161744101
rfoot 25.99871035758281 -10.784370375881252
rtoes 14.533560414179561
lowerback 1.0 -0.40998407458751096 -2.744388869496149
upperback 0.19452846553198494 -0.5775273179108478 -1.1121058435144442
thorax -9.14725536703461 -0.642938135091654 2.2640994764304385
lowerneck -20.649502857681522 -5.977146117020289 -1.575610086684787
upperneck 12.527095140551621 -8.733385548895718 4.734125132972524
head 7.6901386530069935 -3.1242485935772826 0.8323607963212235
lclavicle -1.2433141086197542e-14 -1.56695312613885e-14
lhumerus -46.85163704882418 -4.508286657997157 91.02567195712291
lradius 98.77094154580776
lwrist 35.955536285079646
lhand -29.26760516002356 -2.639153770152401
lfingers nan
lthumb -1.6607050023797196 29.666656836514832
rclavicle -4.053262769057171e-15 -1.1030285432676877e-14
rhumerus -46.856992439615624 6.3298718071626645 -97.8613480484967
rradius 94.48619011000942
rwrist -11.317359349486338
rhand -20.20839617008952 1.0
rfingers nan
rthumb 6.396188193625186 11.92053698537289
135
root -0.606037032292227 17.32689669443209 41.14983668007585 2.561463109603003 4.206937172828944 3.860020654852374
lfemur -25.559009584972507 2.7318518034849095 -28.482534592863963
ltibia 42.398736434154
lfoot -10.072319424894987 -0.6295511311358908
ltoes 8.71524587801862
rfemur -34.44405755137934 -12.047205770316614 12.746918776010775
rtibia 128.16711934066927
rfoot 25.52888239667827 -9.08417685150881
rtoes 16.587102369830788
lowerback 1.0 -0.46496352970566424 -2.5034097231412447
upperback 0.2761245730280672 -0.5714384203516194 -1.2322105473627794
thorax -8.790127029585129 -0.6894415657049014 2.124554337662726
lowerneck -21.129417822344653 -5.957674280607874 -1.4012792672284822
upperneck 12.497424773739928 -8.766498503419662 4.7438456132327
head 7.737877486336658 -3.1342110968498353 0.8005047533637604
lclavicle -1.7008488427318432e-14 2.376018932990948e-14
lhumerus -45.10916568584538 -5.64405960247534 91.35314528993592
lradius 98.83401393757393
lwrist 36.16564772354122
lhand -27.78358984515244 -5.58108671402228
lfingers nan
lthumb -0.1410525135555183 26.83567227869292
rclavicle -9.290180988821325e-15 2.796714715370418e-14
rhumerus -47.62521759921006 5.047787749304095 -97.52975038926635
rradius 92.17186890805847
rwrist -10.574895878689482
rhand -20.826253988187055 1.0
rfingers nan
rthumb 5.804948595240735 12.342110092700239
136
root -0.6043509805899159 17.31891543681679 41.077403283207836 2.522575183936701 3.9635629013561826 3.71361382201315
lfemur -23.901758272779826 2.5032876933177355 -28.145567227125834
ltibia 43.156482112090586
lfoot -11.68022547680377 0.8809596095154131
ltoes 7.812086376829232
rfemur -35.798613416285306 -12.037784722829088 13.012829940866538
rtibia 130.20452722854006
rfoot 24.73455313587979 -7.862959599881379
rtoes 19.74585500582553
lowerback 1.0 -0.47132410306349803 -2.5077116590463846
upperback 0.42648956381008246 -0.5103041385460834 -1.3147129993710243
thorax -8.591794082660817 -0.7008230187697467 2.101956273362199
lowerneck -22.00023430078779 -5.805178555392578 -1.017334633411436
upperneck 12.836594717392108 -8.706584780918693 4.517574122776335
head 7.914454140771713 -3.108286964798184 0.6840757085806101
lclavicle -2.5872267529368632e-14 2.688132306623436e-14
lhumerus -43.380384712120524 -6.704534012431509 91.63295679450319
lradius 99.12443156374984
lwrist 35.8398405662003
lhand -26.435784471118446 -7.868384848525039
lfingers nan
lthumb 1.2554930500829968 24.736099122417713
rclavicle -1.82181340283955e-14 3.0747161321096695e-14
rhumerus -48.47888848929005 3.890796208297621 -97.12582064126109
rradius 90.48630850588111
rwrist -9.013108075879096
rhand -21.275645702865372 1.0
rfingers nan
rthumb 5.361298141375778 10.896671590452994
